<?xml version="1.0" encoding="UTF-8"?>
<svg id="_レイヤー_1" data-name="レイヤー_1" xmlns="http://www.w3.org/2000/svg" version="1.1" viewBox="0 0 256 256">
  <!-- Generator: Adobe Illustrator 30.5.1, SVG Export Plug-In . SVG Version: 2.1.4 Build 3)  -->
  <defs>
    <style>
      .st0, .st1, .st2, .st3, .st4 {
        fill: none;
      }

      .st0, .st2 {
        stroke: #cbc6b8;
      }

      .st5 {
        fill: #3a231e;
      }

      .st6 {
        fill: #789245;
      }

      .st7 {
        fill: #c98e3a;
      }

      .st7, .st8, .st9 {
        isolation: isolate;
      }

      .st7, .st9 {
        font-family: KozGoPr6N-Regular-83pv-RKSJ-H, 'Kozuka Gothic Pr6N';
        font-size: 8px;
      }

      .st10 {
        fill: #a4ae77;
      }

      .st1 {
        stroke: #c77f1a;
        stroke-width: 1.4px;
      }

      .st2, .st3 {
        stroke-dasharray: 2 5;
      }

      .st11 {
        fill: #2b6a30;
      }

      .st12 {
        fill: #fff;
      }

      .st13 {
        fill: #f2dfae;
      }

      .st14 {
        fill: #4c372c;
      }

      .st3 {
        stroke: #e0a24b;
      }

      .st4 {
        stroke: #9cc2ec;
        stroke-dasharray: 5 4;
      }

      .st15 {
        fill: #cea284;
      }

      .st16 {
        fill: #794f26;
      }

      .st9 {
        fill: #9a958a;
      }
    </style>
  </defs>
  <g id="guide">
    <g id="guide1" data-name="guide">
      <rect class="st0" x=".5" y=".5" width="255" height="255"/>
      <circle class="st4" cx="128" cy="128" r="127.5"/>
      <circle class="st3" cx="128" cy="128" r="104"/>
      <line class="st2" x1="128" y1="6" x2="128" y2="250"/>
      <line class="st2" x1="36" y1="208" x2="220" y2="208"/>
      <g>
        <line class="st1" x1="120" y1="112" x2="136" y2="112"/>
        <line class="st1" x1="128" y1="104" x2="128" y2="120"/>
      </g>
      <g>
        <g class="st8">
          <text class="st9" transform="translate(190 205)"><tspan x="0" y="0">あしもと</tspan></text>
        </g>
        <g class="st8">
          <text class="st7" transform="translate(138 76)"><tspan x="0" y="0">だいじゾーン</tspan></text>
        </g>
      </g>
    </g>
  </g>
  <g id="te">
    <path class="st13" d="M178.74,117.39s12.55-7.18,13.55-16.45,10.54-10.58,11.54-5.16-1.51,28.67-25.09,33.11v-11.5Z"/>
    <path class="st13" d="M77.26,117.39s-12.55-7.18-13.55-16.45-10.54-10.58-11.54-5.16,1.51,28.67,25.09,33.11v-11.5Z"/>
  </g>
  <g id="ashi">
    <path class="st6" d="M154.03,176.15s2.31,22.25,6.61,22.89,10.82,5.77-3.46,7.52c-14.28,1.76-10.95-28.62-10.95-28.62l7.79-1.79h.01Z"/>
    <path class="st6" d="M101.97,176.15s-2.31,22.25-6.61,22.89-10.82,5.77,3.46,7.52c14.28,1.76,10.95-28.62,10.95-28.62l-7.79-1.79h0Z"/>
  </g>
  <g id="karada">
    <path class="st6" d="M185.3,95.94c-6.7-24.31-30.93-36.17-57.3-36.17s-50.6,11.86-57.3,36.17c-6.14,22.27,2.82,60.4,19.37,76.51,12.82,12.48,37.93,14.49,37.93,14.49,0,0,25.11-2.01,37.93-14.49,16.55-16.11,25.51-54.24,19.37-76.51Z"/>
    <g id="karada1" data-name="karada">
      <path class="st11" d="M129.59,145.62s27.54-12.41,29.41-13.62,1.65-1.29,2-1c.77.64-21.47,12.8-31.23,16.4-.53-.8-.18-1.78-.18-1.78h0Z"/>
      <path class="st11" d="M128.84,164.75s27.54-12.41,29.41-13.62,1.65-1.29,2-1c.77.64-21.47,12.8-31.23,16.4-.53-.8-.18-1.78-.18-1.78h0Z"/>
      <path class="st11" d="M128,130.44c-4,3.43-1,49.56-1,49.9,0,.66,1,.66,1,.66,0,0,1,0,1-.66,0-.34,3-46.47-1-49.9Z"/>
      <path class="st11" d="M126.41,145.62s-27.54-12.41-29.41-13.62-1.65-1.29-2-1c-.77.64,21.47,12.8,31.23,16.4.53-.8.18-1.78.18-1.78Z"/>
      <path class="st11" d="M127.16,164.75s-27.54-12.41-29.41-13.62-1.65-1.29-2-1c-.77.64,21.47,12.8,31.23,16.4.53-.8.18-1.78.18-1.78Z"/>
    </g>
  </g>
  <g id="atama">
    <path class="st6" d="M128,62.42s-8.3-13.55.25-25.09,10.45-18.57,10.45-18.57c0,0,9.14,16.06,5.13,29.11s-15.82,14.55-15.82,14.55"/>
    <path class="st10" d="M129.39,60.74s-.18-7.7,3.06-16.12l3.34-8.7c.62-1.22.84-.91.48.7,0,0-.83,3.72-3.43,10.59-2.16,5.71-2.56,13.52-3.45,13.52h0Z"/>
  </g>
  <g id="kao">
    <path class="st13" d="M150.45,84.71c-13.83-6.15-20.75-6.06-22.45-5.91-1.7-.15-8.62-.24-22.45,5.91-9.7,4.3-19.11,19.69-10.55,35.8h.01c3.9,7.34,12.66,12.59,20.11,10.71,7.38-1.86,12.77-2.28,12.88-2.29.11,0,5.5.43,12.88,2.29,7.45,1.88,16.21-3.37,20.11-10.71h.01c8.56-16.11-.85-31.5-10.55-35.8Z"/>
    <path class="st15" d="M128,126.06c-17.64.34-33-5.55-33-5.55,3.9,7.34,12.66,12.59,20.11,10.71,7.45-1.88,12.89-2.29,12.89-2.29,0,0,5.44.41,12.89,2.29,7.45,1.88,16.21-3.37,20.11-10.71,0,0-15.36,5.89-33,5.55Z"/>
  </g>
  <path id="kuchi" class="st14" d="M129.34,115.75l-3.71-1.47c.23-.77,1.69-.52,2.37-.27.68.25,1.61.87,1.34,1.74h0Z"/>
  <g id="me">
    <g>
      <path class="st5" d="M147.43,108.49c3.45-3.05,3.89-7.84,1.62-11.63-1.18-1.98-2.55-4.4-4.45-3.86-4.05,1.12-3.35,14.41.57,16,.65.26,1.53.14,2.25-.5h0Z"/>
      <path class="st16" d="M143.86,103.19c-.13-.46-.63-.15-.38.18.05.03.12.13.13.2.11,1.65.75,3.45,2.28,4.58,1.59-1.05,2.52-2.48,3.12-4.26-1.72,1.23-3.57.55-5.09-.58-.05-.02-.07-.08-.07-.12h.01Z"/>
      <ellipse class="st12" cx="145.68" cy="96.96" rx="1.79" ry="1.51" transform="translate(36.59 233.79) rotate(-85.08)"/>
    </g>
    <g>
      <path class="st5" d="M108.57,108.49c-3.45-3.05-3.89-7.84-1.62-11.63,1.18-1.98,2.55-4.4,4.45-3.86,4.05,1.12,3.35,14.41-.57,16-.65.26-1.53.14-2.25-.5h0Z"/>
      <path class="st16" d="M112.14,103.19c.13-.46.63-.15.38.18-.05.03-.12.13-.13.2-.11,1.65-.75,3.45-2.28,4.58-1.59-1.05-2.52-2.48-3.12-4.26,1.72,1.23,3.57.55,5.09-.58.05-.02.07-.08.07-.12h-.01Z"/>
      <ellipse class="st12" cx="110.33" cy="96.95" rx="1.51" ry="1.79" transform="translate(-7.91 9.82) rotate(-4.92)"/>
    </g>
  </g>
</svg>